<?xml version="1.0" standalone="no"?>
<!DOCTYPE svg PUBLIC "-//W3C//DTD SVG 20010904//EN"
 "http://www.w3.org/TR/2001/REC-SVG-20010904/DTD/svg10.dtd">
<svg version="1.0" xmlns="http://www.w3.org/2000/svg"
 width="498.000000pt" height="498.000000pt" viewBox="0 0 498.000000 498.000000"
 preserveAspectRatio="xMidYMid meet">
<metadata>
Created by potrace 1.11, written by Peter Selinger 2001-2013
</metadata>
<g transform="translate(0.000000,498.000000) scale(0.100000,-0.100000)"
fill="#000000" stroke="none">
<path d="M3022 4953 c-11 -10 -129 -144 -262 -298 -133 -154 -247 -284 -254
-289 -8 -5 -34 1 -72 17 -32 14 -144 60 -247 103 -185 75 -189 77 -207 58 -15
-15 -30 -89 -75 -374 -30 -195 -55 -358 -55 -362 0 -4 -29 -21 -65 -38 -258
-123 -310 -454 -101 -647 l60 -56 1 -89 1 -90 -131 -115 c-72 -63 -139 -127
-148 -143 -10 -16 -18 -49 -19 -74 -2 -39 -6 -46 -28 -51 -42 -10 -69 -33 -91
-77 -36 -70 -14 -146 54 -189 26 -16 46 -19 109 -17 65 3 80 7 103 28 39 36
57 78 53 117 -4 29 0 38 26 56 17 11 63 49 102 84 39 35 75 63 80 63 6 0 18
-15 29 -32 10 -18 49 -62 85 -98 l67 -66 66 -184 c41 -113 63 -186 57 -190 -6
-4 -59 -12 -117 -19 -420 -49 -865 -228 -1188 -479 -81 -63 -93 -84 -65 -112
25 -25 34 -21 145 60 322 236 709 389 1115 440 47 6 100 12 118 15 30 4 35 1
48 -32 8 -19 13 -37 11 -39 -3 -3 -50 -14 -106 -26 -107 -23 -129 -37 -116
-78 10 -32 42 -32 185 -1 74 16 136 28 136 27 1 0 9 -84 17 -186 8 -102 20
-197 25 -211 10 -24 17 -27 104 -38 151 -20 178 -19 194 5 13 19 12 24 -3 42
-14 16 -38 24 -103 32 -47 7 -86 13 -88 15 -3 2 254 463 264 474 7 8 206 -29
323 -60 291 -76 567 -208 804 -382 104 -77 111 -80 137 -59 32 26 20 51 -49
105 -280 221 -631 379 -1014 458 -77 15 -142 30 -144 32 -2 3 20 47 50 98 29
52 84 148 121 214 37 66 95 152 128 190 98 115 154 248 183 435 5 30 23 51
128 141 l123 106 75 -5 c88 -5 135 13 188 74 41 46 48 65 56 150 18 199 -55
322 -198 332 -83 6 -130 -12 -182 -70 -24 -27 -50 -48 -57 -47 -72 9 -128 -34
-128 -99 0 -34 -6 -45 -52 -87 l-51 -49 -24 30 c-13 16 -22 37 -21 46 2 9 89
96 193 194 105 98 364 341 578 542 l387 364 0 94 c0 93 0 93 -22 85 -57 -22
-752 -306 -825 -336 -45 -19 -85 -35 -90 -35 -5 0 -66 137 -137 304 -137 325
-146 340 -194 299z m28 -141 c0 -11 -96 -129 -212 -264 -117 -134 -248 -286
-291 -336 -49 -59 -85 -92 -97 -92 -11 0 -20 3 -20 8 0 8 92 117 283 337 271
310 320 365 328 365 5 0 9 -8 9 -18z m1160 -220 c0 -11 -47 -34 -180 -88 -63
-25 -209 -84 -325 -131 -115 -47 -272 -112 -348 -145 -76 -32 -146 -58 -155
-56 -22 5 36 31 358 163 146 59 351 143 455 186 214 88 195 81 195 71z m-2130
-175 c0 -20 -30 -221 -81 -539 -10 -63 -13 -68 -36 -68 -22 0 -25 3 -20 28 3
15 24 151 47 302 23 151 43 281 46 288 2 6 13 12 24 12 14 0 20 -7 20 -23z
m619 -343 c147 -43 275 -152 342 -292 40 -82 65 -205 50 -238 -20 -45 -38 -29
-45 43 -15 141 -75 263 -181 361 -57 54 -97 78 -215 130 -37 16 -11 14 49 -4z
m-371 -120 c-92 -49 -171 -130 -213 -219 -30 -64 -58 -95 -72 -81 -11 11 31
106 70 158 52 70 104 112 182 149 86 42 114 36 33 -7z m301 -286 c107 -51 201
-142 249 -239 35 -73 39 -96 18 -124 -12 -17 -15 -14 -31 36 -50 156 -160 276
-315 343 -78 35 -86 40 -40 32 19 -4 73 -25 119 -48z m-764 16 c-142 -72 -206
-225 -156 -371 39 -115 21 -141 -28 -40 -37 78 -46 131 -31 201 24 117 143
232 245 235 11 0 -2 -11 -30 -25z m624 -75 c104 -36 215 -129 261 -218 50 -99
65 -247 35 -348 -89 -301 -448 -432 -709 -258 -62 41 -118 100 -146 156 l-19
37 50 4 c90 9 168 86 184 179 6 35 9 37 52 44 25 4 51 9 58 11 7 3 18 -9 25
-28 22 -53 60 -97 109 -126 61 -36 164 -38 226 -5 148 79 178 270 60 388 -73
74 -171 93 -260 51 -64 -30 -112 -79 -132 -137 l-17 -46 -68 -15 -67 -15 -31
39 c-34 42 -96 78 -135 78 -41 0 -30 27 38 94 133 133 311 175 486 115z m1222
-18 c22 -21 40 -49 40 -62 1 -13 3 -37 5 -54 1 -16 0 -57 -3 -90 -5 -52 -10
-65 -43 -97 -32 -32 -44 -38 -80 -38 -50 0 -91 22 -114 60 -22 38 -23 218 -1
260 20 38 59 59 114 60 37 0 49 -5 82 -39z m-313 -173 c-2 -54 -7 -93 -13 -93
-6 0 -11 39 -13 93 -2 78 0 92 13 92 13 0 15 -14 13 -92z m-813 -17 c142 -82
62 -301 -101 -276 -85 12 -148 103 -125 181 30 107 132 149 226 95z m493 -61
l17 -33 -46 -47 c-35 -35 -49 -60 -59 -98 -14 -62 -8 -96 29 -154 30 -46 95
-88 139 -88 27 0 27 -7 2 -104 -62 -244 -260 -437 -506 -492 -102 -22 -273
-15 -358 15 -193 68 -342 210 -416 395 -28 70 -50 166 -37 166 3 0 19 -22 36
-48 66 -103 185 -189 309 -224 214 -59 470 35 600 221 61 86 102 196 102 272
0 22 7 42 17 50 25 21 77 107 103 172 26 63 34 63 68 -3z m202 -29 c0 -29 37
-68 75 -81 28 -9 41 -9 65 3 24 12 30 13 30 2 0 -7 -10 -19 -22 -28 -13 -8
-36 -28 -53 -44 -47 -45 -138 -119 -162 -132 -62 -32 -133 15 -133 88 0 36 6
46 53 89 142 133 147 136 147 103z m-1271 -27 c43 -36 58 -89 38 -137 -18 -42
-68 -77 -112 -77 -69 0 -134 76 -120 141 20 90 127 130 194 73z m-239 -508 c0
-2 2 -11 5 -18 3 -8 -29 -44 -85 -92 -96 -83 -114 -114 -85 -146 16 -17 16
-20 2 -26 -37 -14 -82 40 -67 81 4 10 54 61 111 112 94 83 119 102 119 89z
m-230 -376 c43 -43 12 -90 -58 -90 -52 0 -82 21 -82 56 0 50 100 74 140 34z
m1308 -127 c-8 -10 -27 -40 -43 -68 -15 -27 -88 -158 -163 -290 -74 -132 -148
-266 -163 -297 -34 -67 -49 -80 -49 -41 0 30 -35 487 -45 584 l-6 57 103 -5
c94 -5 112 -3 212 26 59 17 120 38 135 45 32 17 40 12 19 -11z m-640 1 c12 -8
22 -20 22 -26 0 -5 6 -24 14 -41 34 -77 64 -188 70 -261 3 -44 4 -77 2 -75 -4
4 -77 200 -142 382 -15 42 -5 49 34 21z"/>
<path d="M2569 2954 c-25 -17 -64 -30 -120 -39 -95 -15 -185 -46 -223 -76 -28
-22 -34 -57 -14 -77 15 -15 55 -16 64 -1 13 22 90 48 183 63 145 23 242 92
201 142 -18 20 -50 16 -91 -12z"/>
<path d="M1110 1047 c-31 -15 -33 -27 -60 -277 -37 -341 -85 -516 -160 -584
-40 -36 -64 -44 -75 -26 -3 6 -17 10 -31 10 -20 0 -24 -5 -24 -30 0 -36 27
-50 98 -50 108 0 171 94 217 326 14 71 30 144 36 161 9 29 12 31 25 19 8 -8
34 -84 58 -168 60 -213 84 -267 125 -295 65 -44 141 -21 141 43 0 19 3 34 8
35 4 0 17 2 30 3 16 2 22 -3 22 -17 0 -10 15 -34 34 -53 25 -25 43 -34 68 -34
47 0 72 21 108 89 l32 59 41 -12 c32 -9 45 -20 61 -51 27 -51 65 -74 98 -57
36 18 62 36 70 47 5 7 8 6 8 -1 0 -21 63 -74 95 -80 85 -16 140 67 199 298 27
104 26 131 -6 126 -15 -2 -27 -28 -57 -118 -26 -81 -40 -110 -46 -100 -5 8 -8
70 -7 138 l2 123 -29 30 c-47 47 -96 36 -130 -29 -11 -20 -21 -32 -21 -27 0 6
-5 29 -9 53 -6 32 -5 47 4 55 11 10 10 15 -3 30 -8 9 -12 20 -9 23 3 4 41 10
84 15 104 11 140 19 153 35 18 20 -20 34 -92 34 -35 0 -94 3 -131 7 l-68 6 7
43 c5 38 3 44 -19 59 -14 9 -36 15 -49 13 -20 -3 -24 -10 -28 -58 l-5 -55 -45
-7 c-25 -3 -66 -7 -91 -7 -62 -1 -84 -25 -49 -51 18 -14 46 -20 100 -22 58 -2
75 -6 75 -18 0 -8 -9 -16 -20 -18 -34 -6 -42 -22 -11 -22 27 0 28 -2 22 -38
-3 -20 -6 -50 -6 -65 0 -24 -2 -26 -19 -17 -14 7 -21 6 -24 -3 -4 -8 -6 -7 -6
3 -1 9 -10 16 -22 17 -11 1 -29 13 -40 27 -11 13 -35 34 -54 46 -19 12 -35 29
-35 38 -1 15 -2 16 -13 1 -7 -9 -18 -14 -25 -11 -7 2 -28 -13 -48 -33 -41 -43
-67 -51 -74 -21 -8 30 17 279 37 364 14 63 14 75 2 83 -27 17 -40 9 -60 -38
-31 -73 -46 -150 -69 -358 -23 -207 -25 -219 -40 -210 -5 3 -10 1 -10 -5 0 -7
-6 -10 -14 -7 -15 6 -31 -46 -19 -67 4 -7 2 -8 -5 -1 -26 24 -44 269 -21 292
8 8 8 13 0 17 -6 4 -11 33 -12 64 0 31 -4 75 -8 97 l-9 40 -1 -54 c0 -30 -3
-52 -6 -49 -3 2 -11 60 -19 128 -9 71 -20 128 -28 135 -21 20 -70 26 -98 12z
m898 -349 c-3 -7 -13 -13 -23 -13 -10 0 -20 6 -22 13 -3 7 5 12 22 12 17 0 25
-5 23 -12z m0 -94 c2 -32 -2 -56 -12 -69 -11 -14 -15 -16 -16 -6 0 11 -5 10
-20 -4 -21 -19 -21 -19 -19 48 2 69 13 88 48 82 12 -1 17 -15 19 -51z m197
-373 c-30 -60 -51 -73 -72 -45 -12 16 -12 19 1 22 9 2 16 8 16 13 0 5 7 9 15
9 8 0 15 7 15 16 0 8 5 12 10 9 6 -3 10 0 10 9 0 13 20 28 28 21 2 -2 -8 -26
-23 -54z m-577 -17 c0 -23 -3 -33 -10 -26 -8 8 -2 62 7 62 2 0 3 -16 3 -36z"/>
<path d="M3063 1018 c-6 -7 -16 -95 -22 -195 -7 -100 -17 -198 -21 -219 -13
-58 -29 -67 -124 -72 -95 -5 -105 0 -123 58 -10 33 -11 34 -12 8 -1 -30 -15
-37 -25 -13 -3 8 -1 52 4 97 9 83 13 154 11 214 -1 40 -27 71 -67 79 l-31 6
-6 -153 c-3 -84 -11 -187 -17 -229 -12 -75 -12 -75 -53 -95 -50 -23 -60 -54
-25 -78 12 -9 30 -16 40 -16 16 0 18 -10 18 -72 0 -155 26 -228 81 -228 17 0
19 8 19 89 l0 88 25 -5 c14 -2 25 -9 25 -14 0 -5 7 -3 15 6 30 30 100 -9 217
-122 53 -51 59 -54 94 -49 51 9 59 19 40 56 -9 17 -19 51 -23 76 -5 38 -3 45
11 45 9 0 16 -8 16 -20 0 -11 5 -20 10 -20 6 0 10 9 10 20 0 17 7 20 40 20 29
0 40 -4 40 -15 0 -8 12 -40 27 -71 58 -123 159 -123 226 0 12 21 28 49 35 62
10 18 22 24 46 24 32 0 33 -2 45 -56 24 -105 93 -136 151 -67 29 36 32 37 42
18 25 -44 57 -65 96 -65 48 0 80 32 112 111 21 53 26 57 61 63 45 7 77 48 104
132 21 66 17 109 -10 109 -16 0 -25 -14 -41 -63 -24 -68 -39 -92 -60 -92 -16
0 -21 21 -27 105 -3 33 -11 72 -18 88 -16 34 -94 87 -129 87 -36 0 -54 -23
-76 -98 -12 -39 -23 -61 -31 -58 -6 3 -13 1 -15 -4 -2 -4 -14 -10 -27 -12 -18
-2 -28 4 -41 27 -9 16 -36 43 -61 60 -41 29 -44 35 -49 86 -6 63 -14 79 -40
79 -32 0 -53 -44 -48 -99 3 -27 1 -56 -4 -65 -14 -25 -45 -19 -67 13 -44 61
-111 63 -149 4 -16 -27 -51 -37 -68 -20 -4 4 -17 7 -30 7 -27 0 -32 12 -39
103 -4 48 0 100 11 157 29 149 29 165 3 184 -28 19 -83 21 -96 4z m64 -430
c-3 -8 -6 -5 -6 6 -1 11 2 17 5 13 3 -3 4 -12 1 -19z m813 -42 c0 -16 -18 -31
-27 -22 -8 8 5 36 17 36 5 0 10 -6 10 -14z m-520 -305 c-20 -72 -43 -87 -75
-51 -16 18 -17 23 -5 45 10 19 16 22 23 13 6 -10 10 -10 13 -1 3 7 12 9 20 6
8 -3 14 0 14 6 0 6 4 11 9 11 6 0 6 -12 1 -29z m286 -26 c1 -8 -2 -17 -7 -21
-5 -3 -9 7 -9 22 0 27 12 26 16 -1z m214 0 c0 -8 -4 -15 -10 -15 -5 0 -7 7 -4
15 4 8 8 15 10 15 2 0 4 -7 4 -15z"/>
</g>
</svg>
